<?xml version="1.0" encoding="UTF-8" standalone="no"?>
<!DOCTYPE svg PUBLIC "-//W3C//DTD SVG 1.1//EN"
 "http://www.w3.org/Graphics/SVG/1.1/DTD/svg11.dtd">
<!-- Generated by graphviz version 2.38.0 (20140413.2041)
 -->
<!-- Title: models_diagram Pages: 1 -->
<svg width="480pt" height="411pt"
 viewBox="0.00 0.00 480.31 411.00" xmlns="http://www.w3.org/2000/svg" xmlns:xlink="http://www.w3.org/1999/xlink">
<g id="graph0" class="graph" transform="scale(1 1) rotate(0) translate(4 407)">
<title>models_diagram</title>
<polygon fill="none" stroke="none" points="-4,4 -4,-407 476.312,-407 476.312,4 -4,4"/>
<!-- _diagram_info -->
<g id="node1" class="node"><title>_diagram_info</title>
<text text-anchor="start" x="8" y="-374.6" font-family="Times,serif" font-size="13.00">Models diagram</text>
<text text-anchor="start" x="8" y="-361.6" font-family="Times,serif" font-size="13.00">Date: Jul 18 2016 &#45; 20:17</text>
<text text-anchor="start" x="8" y="-348.6" font-family="Times,serif" font-size="13.00">Migration version: 20160719011427</text>
<text text-anchor="start" x="8" y="-335.6" font-family="Times,serif" font-size="13.00">Generated by RailRoady 1.5.1</text>
<text text-anchor="start" x="8" y="-322.6" font-family="Times,serif" font-size="13.00">http://railroady.prestonlee.com</text>
</g>
<!-- Inventory -->
<g id="node2" class="node"><title>Inventory</title>
<path fill="none" stroke="black" d="M236.587,-0.5C236.587,-0.5 460.312,-0.5 460.312,-0.5 466.312,-0.5 472.312,-6.5 472.312,-12.5 472.312,-12.5 472.312,-102.5 472.312,-102.5 472.312,-108.5 466.312,-114.5 460.312,-114.5 460.312,-114.5 236.587,-114.5 236.587,-114.5 230.587,-114.5 224.587,-108.5 224.587,-102.5 224.587,-102.5 224.587,-12.5 224.587,-12.5 224.587,-6.5 230.587,-0.5 236.587,-0.5"/>
<text text-anchor="middle" x="348.45" y="-99.3" font-family="Times,serif" font-size="14.00">Inventory</text>
<polyline fill="none" stroke="black" points="224.587,-92.5 472.312,-92.5 "/>
<text text-anchor="start" x="232.587" y="-77.3" font-family="Times,serif" font-size="14.00">id :integer</text>
<text text-anchor="start" x="232.587" y="-63.3" font-family="Times,serif" font-size="14.00">serialnumber :character varying(255)</text>
<text text-anchor="start" x="232.587" y="-49.3" font-family="Times,serif" font-size="14.00">size :integer</text>
<text text-anchor="start" x="232.587" y="-35.3" font-family="Times,serif" font-size="14.00">description :text</text>
<text text-anchor="start" x="232.587" y="-21.3" font-family="Times,serif" font-size="14.00">created_at :timestamp without time zone</text>
<text text-anchor="start" x="232.587" y="-7.3" font-family="Times,serif" font-size="14.00">updated_at :timestamp without time zone</text>
</g>
<!-- Operation -->
<g id="node3" class="node"><title>Operation</title>
<path fill="none" stroke="black" d="M236.587,-151.5C236.587,-151.5 460.312,-151.5 460.312,-151.5 466.312,-151.5 472.312,-157.5 472.312,-163.5 472.312,-163.5 472.312,-253.5 472.312,-253.5 472.312,-259.5 466.312,-265.5 460.312,-265.5 460.312,-265.5 236.587,-265.5 236.587,-265.5 230.587,-265.5 224.587,-259.5 224.587,-253.5 224.587,-253.5 224.587,-163.5 224.587,-163.5 224.587,-157.5 230.587,-151.5 236.587,-151.5"/>
<text text-anchor="middle" x="348.45" y="-250.3" font-family="Times,serif" font-size="14.00">Operation</text>
<polyline fill="none" stroke="black" points="224.587,-243.5 472.312,-243.5 "/>
<text text-anchor="start" x="232.587" y="-228.3" font-family="Times,serif" font-size="14.00">id :integer</text>
<text text-anchor="start" x="232.587" y="-214.3" font-family="Times,serif" font-size="14.00">workdoneby :character varying(255)</text>
<text text-anchor="start" x="232.587" y="-200.3" font-family="Times,serif" font-size="14.00">created_at :timestamp without time zone</text>
<text text-anchor="start" x="232.587" y="-186.3" font-family="Times,serif" font-size="14.00">updated_at :timestamp without time zone</text>
<text text-anchor="start" x="232.587" y="-172.3" font-family="Times,serif" font-size="14.00">worker_id :integer</text>
<text text-anchor="start" x="232.587" y="-158.3" font-family="Times,serif" font-size="14.00">inventory_id :integer</text>
</g>
<!-- Operation&#45;&gt;Inventory -->
<g id="edge1" class="edge"><title>Operation&#45;&gt;Inventory</title>
<path fill="none" stroke="#fbe5f0" d="M348.45,-143.018C348.45,-136.439 348.45,-129.755 348.45,-123.174"/>
<ellipse fill="none" stroke="#fbe5f0" cx="348.45" cy="-147.169" rx="4" ry="4"/>
<ellipse fill="#fbe5f0" stroke="#fbe5f0" cx="348.45" cy="-118.91" rx="4" ry="4"/>
</g>
<!-- Worker -->
<g id="node4" class="node"><title>Worker</title>
<path fill="none" stroke="black" d="M236.587,-302.5C236.587,-302.5 460.312,-302.5 460.312,-302.5 466.312,-302.5 472.312,-308.5 472.312,-314.5 472.312,-314.5 472.312,-390.5 472.312,-390.5 472.312,-396.5 466.312,-402.5 460.312,-402.5 460.312,-402.5 236.587,-402.5 236.587,-402.5 230.587,-402.5 224.587,-396.5 224.587,-390.5 224.587,-390.5 224.587,-314.5 224.587,-314.5 224.587,-308.5 230.587,-302.5 236.587,-302.5"/>
<text text-anchor="middle" x="348.45" y="-387.3" font-family="Times,serif" font-size="14.00">Worker</text>
<polyline fill="none" stroke="black" points="224.587,-380.5 472.312,-380.5 "/>
<text text-anchor="start" x="232.587" y="-365.3" font-family="Times,serif" font-size="14.00">id :integer</text>
<text text-anchor="start" x="232.587" y="-351.3" font-family="Times,serif" font-size="14.00">name :character varying(255)</text>
<text text-anchor="start" x="232.587" y="-337.3" font-family="Times,serif" font-size="14.00">email :character varying(255)</text>
<text text-anchor="start" x="232.587" y="-323.3" font-family="Times,serif" font-size="14.00">created_at :timestamp without time zone</text>
<text text-anchor="start" x="232.587" y="-309.3" font-family="Times,serif" font-size="14.00">updated_at :timestamp without time zone</text>
</g>
<!-- Worker&#45;&gt;Operation -->
<g id="edge2" class="edge"><title>Worker&#45;&gt;Operation</title>
<path fill="none" stroke="#ac8473" d="M348.45,-294.168C348.45,-288.214 348.45,-282.127 348.45,-276.084"/>
<ellipse fill="none" stroke="#ac8473" cx="348.45" cy="-298.234" rx="4" ry="4"/>
<polygon fill="#ac8473" stroke="#ac8473" points="348.45,-275.984 352.95,-265.984 348.45,-270.984 348.45,-265.984 348.45,-265.984 348.45,-265.984 348.45,-270.984 343.95,-265.984 348.45,-275.984 348.45,-275.984"/>
</g>
</g>
</svg>
