<?xml version="1.0" encoding="UTF-8" standalone="no"?>
<!DOCTYPE svg PUBLIC "-//W3C//DTD SVG 1.1//EN"
 "http://www.w3.org/Graphics/SVG/1.1/DTD/svg11.dtd">
<!-- Generated by graphviz version 2.38.0 (20140413.2041)
 -->
<!-- Title: models_diagram Pages: 1 -->
<svg width="315pt" height="225pt"
 viewBox="0.00 0.00 314.92 225.00" xmlns="http://www.w3.org/2000/svg" xmlns:xlink="http://www.w3.org/1999/xlink">
<g id="graph0" class="graph" transform="scale(1 1) rotate(0) translate(4 221)">
<title>models_diagram</title>
<polygon fill="none" stroke="none" points="-4,4 -4,-221 310.917,-221 310.917,4 -4,4"/>
<!-- _diagram_info -->
<g id="node1" class="node"><title>_diagram_info</title>
<text text-anchor="start" x="8" y="-202.6" font-family="Times,serif" font-size="13.00">Models diagram</text>
<text text-anchor="start" x="8" y="-189.6" font-family="Times,serif" font-size="13.00">Date: Jul 18 2016 &#45; 20:18</text>
<text text-anchor="start" x="8" y="-176.6" font-family="Times,serif" font-size="13.00">Migration version: 20160719011427</text>
<text text-anchor="start" x="8" y="-163.6" font-family="Times,serif" font-size="13.00">Generated by RailRoady 1.5.1</text>
<text text-anchor="start" x="8" y="-150.6" font-family="Times,serif" font-size="13.00">http://railroady.prestonlee.com</text>
</g>
<!-- Inventory -->
<g id="node2" class="node"><title>Inventory</title>
<ellipse fill="none" stroke="black" cx="261.45" cy="-18" rx="44.475" ry="18"/>
<text text-anchor="middle" x="261.45" y="-13.8" font-family="Times,serif" font-size="14.00">Inventory</text>
</g>
<!-- Operation -->
<g id="node3" class="node"><title>Operation</title>
<ellipse fill="none" stroke="black" cx="261.45" cy="-90" rx="45.4355" ry="18"/>
<text text-anchor="middle" x="261.45" y="-85.8" font-family="Times,serif" font-size="14.00">Operation</text>
</g>
<!-- Operation&#45;&gt;Inventory -->
<g id="edge1" class="edge"><title>Operation&#45;&gt;Inventory</title>
<path fill="none" stroke="#e1cf2d" d="M261.45,-63.6398C261.45,-57.348 261.45,-50.6053 261.45,-44.3156"/>
<ellipse fill="none" stroke="#e1cf2d" cx="261.45" cy="-67.6966" rx="4" ry="4"/>
<ellipse fill="#e1cf2d" stroke="#e1cf2d" cx="261.45" cy="-40.1043" rx="4" ry="4"/>
</g>
<!-- Worker -->
<g id="node4" class="node"><title>Worker</title>
<ellipse fill="none" stroke="black" cx="261.45" cy="-180.5" rx="36.3169" ry="18"/>
<text text-anchor="middle" x="261.45" y="-176.3" font-family="Times,serif" font-size="14.00">Worker</text>
</g>
<!-- Worker&#45;&gt;Operation -->
<g id="edge2" class="edge"><title>Worker&#45;&gt;Operation</title>
<path fill="none" stroke="#ba27ab" d="M261.45,-154.189C261.45,-142.971 261.45,-129.752 261.45,-118.311"/>
<ellipse fill="none" stroke="#ba27ab" cx="261.45" cy="-158.436" rx="4" ry="4"/>
<polygon fill="#ba27ab" stroke="#ba27ab" points="261.45,-118.011 265.95,-108.011 261.45,-113.011 261.45,-108.011 261.45,-108.011 261.45,-108.011 261.45,-113.011 256.95,-108.011 261.45,-118.011 261.45,-118.011"/>
</g>
</g>
</svg>
